# xmcd
# 
# Track frame offsets:
#     150
#     13486
#     21679
#     31630
#     39498
#     51580
#     59652
#     70345
#     82572
#     94636
#     105129
#     111591
#     131863
#     142030
#     160603
#     180011
#     189426
#     200936
#     215658
#     230801
#     247583
#     265873
# 
# Disc length: 3709
# 
# Revision: 2
# Processed by: cddbd v1.5.2PL0 Copyright (c) Steve Scherf et al.
# Submitted via: fre:ac v1.0.31
# 
DISCID=3a0e7b16
DTITLE=Kalmer Tennosaar - Eesti kullafond CD2
DYEAR=2010
DGENRE=Pop
TTITLE0=Jaagupi jenka
TTITLE1=Otsin neljalehelist ristikheina
TTITLE2=Teede kuningas
TTITLE3=Naisevõtt
TTITLE4=Jenka
TTITLE5=Tahan oma saart
TTITLE6=Maria
TTITLE7=Sinu oma
TTITLE8=Tervist, Catherine
TTITLE9=Meremehe laul
TTITLE10=Karulaul
TTITLE11=Hällilaul
TTITLE12=Peetri laul filmist "Juunikuu päevad"
TTITLE13=Sügis on see
TTITLE14=Kahed jäljed
TTITLE15=Karulaane jenka
TTITLE16=Lõppenud on päevad
TTITLE17=Maailmas pole enam valgust
TTITLE18=Dona, Dona
TTITLE19=Kõndisin mere rannalla
TTITLE20=Õhtu rannal
TTITLE21=Leierkastimees
EXTD=
EXTT0=
EXTT1=
EXTT2=
EXTT3=
EXTT4=
EXTT5=
EXTT6=
EXTT7=
EXTT8=
EXTT9=
EXTT10=
EXTT11=
EXTT12=
EXTT13=
EXTT14=
EXTT15=
EXTT16=
EXTT17=
EXTT18=
EXTT19=
EXTT20=
EXTT21=
PLAYORDER=
